<svg width="75" height="69" viewBox="0 0 75 69" fill="none" xmlns="http://www.w3.org/2000/svg">
<path d="M70.9865 21.3122C63.4999 3.78429 40.193 -5.81579 21.8213 3.82241C8.62694 9.80956 0.0968385 24.9039 1.35853e-05 40.6998L1.06494 40.7061C1.15977 25.24 9.51901 10.5692 22.2713 4.78817C22.2806 4.78394 22.2901 4.77919 22.2992 4.77443C40.0944 -4.57459 62.7493 4.73877 70.0068 21.7311C70.0106 21.74 70.0147 21.749 70.0189 21.7576C78.2737 38.5057 70.4748 58.9409 56.3085 64.9756C56.2989 64.9797 56.2889 64.9845 56.2796 64.9891C42.2995 71.9382 25.2123 64.2304 20.14 51.398C20.1365 51.389 20.1319 51.3803 20.1279 51.3715C14.2805 38.6517 20.64 23.9499 30.8548 20.0918C30.865 20.0879 30.8757 20.0832 30.8856 20.0788C41.0408 15.5175 52.5725 21.6195 55.462 30.2824C55.4651 30.2917 55.4691 30.3014 55.4727 30.3106C57.1931 34.6473 56.8352 39.062 55.2525 42.6102C53.6652 46.1687 50.8698 48.8096 47.7611 49.6615C47.7502 49.6645 47.7389 49.6673 47.7282 49.6709C44.5749 50.7535 41.5019 50.1956 39.1169 48.79C36.719 47.3769 35.063 45.1368 34.6986 42.9161L34.6916 42.8818C34.1529 40.5735 34.7344 38.6085 35.7342 37.2701C36.7534 35.9058 38.1453 35.257 39.2091 35.4097C39.226 35.4122 39.2434 35.4136 39.2604 35.4144C40.4598 35.4701 41.1703 36.1299 41.4536 36.8018C41.7643 37.5388 41.5332 38.0731 41.2105 38.2259C40.9447 38.3516 40.831 38.6695 40.9567 38.9353C41.0825 39.2007 41.3996 39.3142 41.6653 39.1889C42.7442 38.6786 42.8466 37.3651 42.4349 36.3883C41.9977 35.3512 40.9378 34.4342 39.3318 34.3518C37.7622 34.1406 36.0375 35.0844 34.8808 36.6329C33.6976 38.2169 33.0433 40.5022 33.6551 43.1238C34.0922 45.706 35.9774 48.1762 38.5758 49.7076C41.1967 51.2523 44.589 51.8716 48.0651 50.6812C51.5385 49.7203 54.5428 46.8154 56.2252 43.0437C57.914 39.2575 58.2955 34.5516 56.4692 29.9346C53.3834 20.7064 41.2092 14.2874 30.4664 19.1C19.6165 23.2076 13.0876 38.6053 19.1606 51.816C24.4608 65.176 42.1751 73.1667 56.7252 65.9558L57.4129 65.6497C71.7469 59.0023 79.3317 38.2796 70.9865 21.3122ZM1.35853e-05 40.6998C-0.00170694 40.9937 0.235079 41.2328 0.528978 41.2348C0.82304 41.2366 1.06314 41.0001 1.06494 40.7061L1.35853e-05 40.6998Z" fill="#FFBE0B"/>
</svg>
